<?xml version="1.0" standalone="no"?>
<!DOCTYPE svg PUBLIC "-//W3C//DTD SVG 20010904//EN"
 "http://www.w3.org/TR/2001/REC-SVG-20010904/DTD/svg10.dtd">
<svg version="1.0" xmlns="http://www.w3.org/2000/svg"
 width="2560.000000pt" height="2560.000000pt" viewBox="0 0 2560.000000 2560.000000"
 preserveAspectRatio="xMidYMid meet">
<metadata>
Created by potrace 1.11, written by Peter Selinger 2001-2013
</metadata>
<g transform="translate(0.000000,2560.000000) scale(0.100000,-0.100000)"
fill="#000000" stroke="none">
<path d="M1 24403 l0 -1198 837 -690 c1567 -1293 2864 -2379 2952 -2471 94
-99 296 -344 283 -344 -4 0 -75 36 -156 79 -359 193 -627 400 -1952 1506 -773
645 -1932 1606 -1952 1618 -10 7 -13 -205 -13 -1046 l0 -1055 93 -59 c50 -33
234 -152 407 -265 173 -112 335 -215 359 -229 31 -17 52 -39 71 -74 50 -89 49
-92 -17 -106 -110 -22 -88 -33 -588 286 -165 105 -306 195 -312 199 -10 6 -13
-174 -13 -886 l0 -894 323 -154 c1171 -559 1998 -961 2071 -1008 47 -30 249
-202 243 -208 -4 -4 -260 43 -307 56 -141 41 -485 197 -1480 672 -448 215
-823 392 -833 395 -16 5 -17 -34 -15 -767 l3 -772 400 -133 c220 -73 489 -167
598 -209 253 -98 360 -130 756 -227 425 -104 597 -157 1125 -346 421 -151 383
-132 391 -186 4 -26 2 -53 -4 -65 -19 -35 -122 -19 -556 88 -771 190 -1243
334 -1905 583 -360 135 -769 277 -800 277 -7 0 -10 -264 -10 -754 0 -710 1
-755 18 -760 44 -13 466 -112 709 -165 312 -69 442 -94 803 -156 188 -32 272
-50 290 -63 21 -16 80 -114 79 -132 0 -3 -20 -18 -46 -34 l-46 -29 -401 77
c-586 113 -1251 253 -1388 292 -17 5 -18 -33 -18 -695 l0 -700 33 -5 c34 -6
2278 -141 2588 -156 209 -10 245 -19 313 -76 l47 -39 -33 -28 c-85 -72 -141
-81 -383 -67 -778 48 -2359 153 -2497 166 l-68 6 0 -671 0 -671 23 5 c56 12
899 51 1297 61 258 5 266 5 298 -15 24 -16 32 -28 30 -43 -6 -44 -227 -79
-1003 -158 -330 -33 -610 -63 -623 -66 l-22 -4 0 -714 0 -713 292 79 c397 107
851 220 1033 258 83 17 276 49 430 71 378 54 459 68 825 145 173 37 327 69
343 71 31 6 49 -6 89 -61 l28 -39 -22 -36 c-12 -20 -22 -37 -23 -38 -5 -10
-716 -146 -1030 -198 -405 -67 -423 -71 -845 -185 -140 -38 -320 -83 -400
-100 -146 -31 -556 -102 -663 -115 l-57 -7 0 -714 c0 -393 3 -714 7 -714 5 0
231 74 503 164 1292 428 1604 527 1615 514 5 -6 45 -87 45 -92 0 -2 -27 -24
-59 -49 -56 -41 -103 -59 -758 -275 -384 -127 -845 -279 -1025 -338 l-328
-106 0 -1830 0 -1830 33 24 c97 73 601 421 787 543 361 238 576 371 1040 645
560 331 1159 714 1263 806 45 41 64 42 145 7 61 -27 63 -29 58 -58 -4 -16 -14
-41 -24 -53 -31 -42 -822 -537 -1522 -952 -280 -166 -460 -284 -739 -484 -155
-112 -627 -422 -898 -591 l-143 -88 0 -1064 0 -1065 54 47 c65 55 103 68 177
60 l57 -7 -18 -58 c-23 -75 -34 -88 -163 -201 l-107 -93 0 -1228 0 -1228 1444
0 1445 0 223 323 c124 177 260 374 303 437 189 276 514 732 686 961 81 108
125 158 142 163 14 3 32 9 41 12 10 4 16 1 16 -9 0 -8 12 -32 26 -53 25 -37
26 -41 16 -102 -6 -36 -22 -81 -35 -101 -13 -20 -118 -154 -233 -297 -244
-305 -448 -588 -737 -1019 l-208 -310 2892 -3 c1591 -1 2894 0 2896 2 2 2 26
89 53 192 58 226 118 436 240 844 50 168 145 516 211 775 65 259 126 488 134
510 13 36 24 45 87 76 l73 36 28 -56 28 -56 -116 -445 c-156 -600 -201 -761
-312 -1130 -83 -276 -168 -598 -189 -712 l-6 -38 797 0 797 0 -6 53 c-12 91
-8 157 18 332 14 94 32 235 41 315 37 345 161 1371 230 1915 41 324 75 600 75
612 0 33 32 93 77 145 l38 44 39 -59 c28 -41 40 -72 43 -105 4 -45 -366 -3043
-387 -3139 -6 -24 -17 -60 -25 -79 l-14 -34 720 0 719 0 0 723 c0 747 3 803
44 1037 14 74 28 162 32 195 l7 60 32 -160 c63 -313 66 -359 75 -1095 5 -371
9 -694 9 -717 l1 -43 750 0 c413 0 750 3 750 6 0 3 -16 32 -36 64 -31 51 -38
73 -54 191 -11 74 -65 454 -120 844 -55 391 -147 1016 -205 1389 -58 374 -105
693 -105 711 0 23 12 48 42 85 l42 52 46 -48 c54 -56 40 6 120 -544 28 -190
66 -444 85 -565 99 -636 285 -2008 285 -2107 0 -41 -3 -49 -27 -62 -25 -14 52
-15 730 -16 416 0 757 2 757 4 0 6 -61 236 -220 826 -272 1010 -382 1436 -388
1493 -5 58 -5 58 19 52 14 -3 37 -1 52 4 25 10 29 7 66 -42 22 -29 44 -64 50
-80 13 -33 611 -2240 611 -2253 0 -2 790 -4 1755 -4 965 0 1755 2 1755 5 0 19
-521 932 -1219 2139 -299 516 -448 778 -560 987 -67 126 -69 161 -9 207 23 18
52 32 64 32 15 0 49 -26 97 -72 l74 -73 220 -445 c235 -474 361 -706 751
-1375 290 -497 308 -527 517 -850 89 -137 202 -319 250 -402 l88 -153 3028 0
3029 0 0 880 0 879 -82 41 c-117 57 -281 183 -889 685 -294 242 -784 646
-1089 897 -624 514 -674 559 -688 615 -25 99 -29 90 42 98 82 8 87 6 296 -154
264 -201 2240 -1830 2358 -1945 l52 -50 0 2230 0 2230 -117 75 c-141 90 -166
123 -144 186 8 21 19 41 25 45 23 16 140 8 185 -12 24 -11 45 -20 47 -20 2 0
4 386 4 858 l0 858 -552 172 c-304 94 -773 239 -1043 321 -896 273 -1304 400
-1334 415 -27 14 -136 134 -128 142 7 7 150 34 181 34 39 0 752 -218 1486
-454 283 -91 711 -227 950 -304 l435 -138 3 1620 c1 890 1 1620 0 1622 -2 1
-142 7 -313 13 -355 13 -531 23 -1465 87 -624 43 -677 48 -706 67 -27 18 -31
24 -24 49 5 15 11 31 14 36 3 5 64 15 137 22 109 11 242 11 773 1 633 -12
1107 -24 1424 -37 l162 -7 0 1582 c0 1502 -1 1582 -17 1577 -10 -3 -126 -21
-258 -41 -496 -74 -526 -80 -1050 -220 -220 -58 -520 -119 -980 -199 -339 -59
-372 -63 -398 -50 -25 13 -26 16 -12 30 8 9 15 21 15 28 0 7 39 31 88 54 67
31 190 67 532 156 868 226 1111 279 1600 351 234 34 393 59 453 71 l27 6 0
1739 0 1739 -217 -109 c-493 -247 -3073 -1465 -3135 -1480 -51 -12 -123 -14
-179 -5 l-36 6 39 71 c21 39 46 80 55 90 31 33 313 173 1258 622 983 468 1619
766 1990 933 l220 99 3 3246 2 3247 -3017 0 -3018 0 -30 -42 c-33 -48 -226
-250 -232 -245 -2 3 14 68 35 146 l39 141 -919 -2 -920 -3 -170 -435 c-93
-239 -318 -813 -500 -1275 -182 -462 -350 -898 -375 -970 -47 -139 -68 -169
-159 -234 l-43 -31 -17 57 c-37 127 -37 125 81 448 63 171 654 1678 845 2155
57 140 105 263 107 273 5 16 -35 17 -746 17 l-751 0 0 -22 c0 -55 -265 -988
-341 -1202 -71 -198 -136 -446 -204 -776 -110 -539 -159 -734 -310 -1220 -35
-113 -77 -250 -94 -306 -32 -104 -53 -131 -97 -122 -17 3 -19 13 -18 113 1 94
12 164 73 475 168 850 282 1317 441 1805 38 116 89 280 113 365 46 156 227
860 227 879 0 8 -218 11 -725 11 l-725 0 -5 -22 c-2 -13 -36 -282 -75 -598
-39 -316 -91 -717 -115 -890 -24 -173 -53 -387 -65 -475 -27 -215 -27 -216
-54 -248 -23 -28 -24 -29 -54 -13 -17 9 -39 16 -49 16 -15 0 -23 18 -41 88
-12 48 -22 103 -22 122 0 19 38 253 85 520 74 425 171 1113 201 1428 l7 72
-763 0 c-722 0 -762 -1 -755 -17 21 -54 27 -375 32 -1763 3 -1063 1 -1525 -6
-1550 -6 -19 -26 -53 -44 -74 l-34 -39 -37 39 c-75 79 -70 20 -74 894 -1 432
1 1152 6 1600 8 718 11 820 26 859 9 24 16 45 16 47 0 2 -328 4 -730 4 -628 0
-730 -2 -730 -14 0 -8 56 -448 125 -978 78 -605 125 -1006 127 -1077 l3 -115
-30 -7 c-16 -3 -37 -10 -46 -13 -14 -6 -23 9 -49 76 -17 46 -36 108 -42 138
-6 30 -67 489 -137 1020 l-127 965 -1657 3 c-992 1 -1657 -2 -1657 -7 0 -60
471 -1223 645 -1591 235 -498 248 -529 350 -860 35 -113 73 -231 84 -263 30
-85 21 -136 -29 -164 l-37 -22 -44 28 c-24 15 -50 34 -56 43 -7 8 -74 196
-148 417 -148 440 -232 656 -533 1371 -109 261 -250 604 -312 763 l-113 287
-864 0 -863 0 60 -121 c68 -135 73 -172 22 -182 -23 -5 -34 2 -69 41 -44 49
-86 108 -147 205 l-36 57 -2381 0 -2382 0 429 -433 c236 -238 498 -508 583
-601 136 -148 155 -174 161 -211 6 -40 4 -45 -37 -89 -24 -25 -47 -46 -50 -46
-3 0 -38 16 -78 35 -71 34 -75 38 -291 297 -167 201 -309 355 -603 655 l-383
393 -129 0 -129 0 1 -1197z m24225 1016 l22 -20 -56 -97 c-37 -64 -144 -205
-316 -417 -602 -740 -706 -857 -1271 -1420 -354 -352 -527 -533 -650 -677
-181 -214 -169 -205 -260 -184 -46 10 -51 14 -59 49 -6 23 -6 47 0 61 16 41
523 585 844 906 290 290 408 420 600 660 207 259 448 525 800 883 291 296 298
301 346 256z m-20730 -320 c180 -170 298 -307 454 -529 41 -58 283 -393 539
-745 255 -352 687 -948 959 -1325 273 -377 514 -707 537 -735 52 -63 66 -87
93 -155 22 -57 47 -178 38 -187 -7 -8 -106 26 -152 53 -45 25 -95 82 -201 224
-303 409 -2268 3141 -2321 3228 -18 30 -53 99 -78 155 -25 55 -61 132 -81 171
l-35 70 58 -51 c33 -28 118 -107 190 -174z m5737 48 c34 -50 57 -127 296
-1003 306 -1122 298 -1093 457 -1633 73 -248 123 -433 120 -445 -3 -12 -20
-42 -36 -69 -35 -55 -36 -54 -112 15 l-48 43 -89 320 c-49 176 -144 527 -210
780 -66 253 -208 791 -316 1195 -107 403 -195 753 -195 776 0 41 2 43 43 57
23 8 45 15 48 16 3 0 22 -23 42 -52z m9612 -604 c32 -16 55 -34 54 -43 0 -8
-4 -49 -8 -92 -9 -88 -27 -122 -271 -508 -228 -361 -541 -960 -895 -1715 -199
-427 -280 -570 -488 -867 -129 -183 -148 -198 -230 -171 -45 15 -47 17 -49 57
-5 102 -19 74 264 536 177 289 671 1225 1083 2050 97 195 227 441 288 547 99
170 117 194 152 212 22 11 41 20 42 20 2 1 27 -11 58 -26z m-12734 -128 c16
-11 103 -145 171 -265 77 -136 748 -1370 1173 -2158 164 -304 308 -579 321
-611 22 -53 54 -215 54 -269 0 -20 -12 -13 -86 55 -115 105 -189 208 -351 493
-123 215 -800 1443 -1073 1945 -155 286 -299 549 -321 585 -45 77 -58 150 -39
229 l12 50 64 -24 c36 -14 69 -27 75 -30z m14797 -47 l-3 -73 -125 -180 c-152
-221 -299 -427 -860 -1205 -240 -333 -568 -792 -729 -1020 -357 -506 -365
-515 -418 -486 -59 32 -57 28 -33 100 17 53 66 128 247 384 395 555 903 1278
1098 1562 303 441 618 884 666 934 8 9 133 54 153 55 4 1 7 -32 4 -71z
m-18943 -438 c18 0 166 -142 612 -590 323 -325 589 -592 590 -593 2 -2 -5 -28
-13 -59 l-16 -56 -51 -6 -51 -7 -146 148 c-187 191 -855 885 -948 985 -87 93
-95 118 -56 159 15 16 34 27 42 24 7 -3 24 -5 37 -5z m23428 -351 l37 -31 -28
-36 c-15 -21 -43 -61 -62 -91 -18 -29 -47 -67 -64 -83 -17 -16 -247 -199 -511
-406 -603 -473 -1686 -1391 -2315 -1962 -470 -427 -691 -614 -1080 -916 -438
-340 -547 -419 -594 -435 -50 -17 -50 -17 -83 8 -18 14 -33 29 -33 34 0 4 20
45 43 91 42 79 50 88 183 196 76 62 265 210 419 329 382 296 503 395 1240
1023 697 593 1007 860 1655 1425 234 204 511 440 615 525 105 85 240 195 300
245 135 112 139 114 195 115 36 0 53 -6 83 -31z m-21833 -1382 c113 -76 845
-758 1140 -1063 110 -114 283 -310 476 -540 109 -131 319 -357 538 -581 l218
-223 -24 -75 -23 -75 -46 0 -46 0 -250 268 c-325 348 -417 451 -543 602 -174
208 -263 302 -544 564 -262 244 -415 400 -662 676 -223 250 -354 410 -354 433
0 21 25 67 36 67 2 0 40 -24 84 -53z m17615 -72 c-94 -210 -218 -400 -377
-573 -32 -35 -232 -253 -445 -485 -494 -539 -727 -789 -983 -1057 -113 -118
-221 -234 -241 -257 -41 -49 -72 -63 -140 -63 l-49 0 0 68 c0 84 13 106 157
267 272 305 1752 1904 1834 1982 25 23 244 166 266 172 1 1 -9 -24 -22 -54z
m4143 -1015 c12 -12 29 -32 38 -45 15 -23 15 -27 -4 -56 -21 -33 -150 -144
-440 -380 -186 -151 -289 -217 -520 -333 -159 -80 -292 -163 -388 -243 -68
-57 -70 -57 -141 8 -30 28 -41 46 -45 77 l-6 41 317 191 c384 233 390 237 521
350 58 50 143 117 190 149 92 63 428 260 446 261 5 0 20 -9 32 -20z m-1921
-1305 l22 -34 -52 -68 c-57 -74 46 -3 -1347 -923 -289 -191 -669 -445 -845
-565 -176 -120 -390 -262 -475 -316 l-155 -99 -70 0 c-101 0 -104 5 -67 83
l30 66 269 179 c147 98 414 273 593 389 179 116 690 448 1135 738 694 452 909
587 935 585 3 -1 15 -16 27 -35z m-21675 -82 c46 -31 151 -104 233 -163 218
-156 267 -186 1185 -738 1060 -636 1190 -718 1212 -763 21 -43 22 -70 3 -116
l-15 -36 -77 7 c-91 7 -138 33 -353 190 -229 169 -297 214 -560 376 -401 247
-678 408 -900 525 -387 204 -507 279 -797 503 -183 141 -202 166 -168 228 18
34 33 40 112 43 36 1 54 -7 125 -56z m11423 -1763 c398 -55 690 -172 1155
-463 276 -173 423 -237 547 -237 72 0 104 13 149 62 71 75 134 268 169 521 l6
47 166 0 166 0 -7 -87 c-32 -444 -53 -1147 -62 -2140 l-7 -723 -163 0 -163 0
-5 33 c-3 17 -10 82 -16 142 -54 538 -215 1065 -453 1485 -387 683 -858 1007
-1597 1101 -121 15 -469 15 -580 0 -428 -59 -762 -218 -1029 -491 -311 -317
-456 -698 -454 -1190 1 -387 91 -692 296 -1003 85 -131 241 -314 372 -438 221
-208 586 -457 1559 -1061 521 -324 802 -507 1081 -702 516 -361 786 -589 1014
-856 432 -505 627 -928 687 -1485 17 -163 19 -503 4 -666 -79 -839 -447 -1461
-1125 -1901 -585 -378 -1316 -549 -2185 -509 -491 23 -810 93 -1214 268 -199
86 -269 122 -482 246 -275 160 -368 201 -488 213 -57 6 -69 4 -114 -21 -83
-45 -134 -136 -181 -321 -16 -64 -51 -262 -51 -288 0 -3 -74 -6 -165 -6 l-165
0 0 28 c0 15 5 113 10 217 21 418 32 1043 39 2105 l6 1115 166 3 166 2 13
-147 c36 -434 128 -895 255 -1277 185 -557 458 -1021 769 -1306 326 -299 739
-473 1261 -531 162 -18 505 -16 645 4 478 69 893 291 1174 627 236 281 354
617 386 1095 37 538 -91 991 -391 1387 -74 98 -302 328 -445 450 -346 296
-790 606 -1434 1003 -639 394 -1173 757 -1455 992 -364 301 -668 685 -856
1078 -190 399 -268 877 -229 1410 65 880 465 1501 1230 1908 311 165 652 266
1075 318 218 26 721 21 950 -11z m11880 -952 c20 -9 25 -18 25 -45 0 -19 5
-44 11 -55 9 -18 5 -27 -37 -69 -42 -43 -61 -53 -153 -83 -59 -20 -189 -58
-291 -85 -353 -95 -1335 -439 -1866 -654 -488 -198 -649 -249 -1046 -333 -155
-33 -182 -36 -216 -26 -40 12 -62 42 -62 84 0 12 18 45 40 74 32 42 49 56 83
65 410 109 679 187 902 263 298 101 1567 545 2058 720 197 71 469 155 499 156
15 0 39 -5 53 -12z m65 -3392 l124 -33 -44 -16 c-25 -8 -89 -32 -143 -51 -148
-54 -151 -55 -1677 -166 -602 -44 -1151 -85 -1220 -91 -69 -7 -137 -10 -151
-6 -13 3 -46 23 -72 43 l-48 37 56 58 c54 54 60 57 128 68 87 13 816 69 1467
111 1479 97 1401 94 1580 46z m-3025 -2590 c99 -19 461 -87 805 -151 1198
-222 1997 -375 2088 -402 30 -8 75 -24 100 -35 65 -28 212 -110 212 -118 0
-10 -213 -32 -300 -31 -52 1 -159 17 -317 50 -131 27 -272 54 -313 61 -41 6
-617 110 -1280 230 -663 120 -1225 221 -1250 225 -68 10 -124 41 -164 90 l-36
44 32 23 c83 60 79 58 163 54 44 -3 161 -21 260 -40z m-18370 -2223 c30 -15
55 -32 55 -38 0 -5 -9 -28 -19 -51 -23 -50 7 -33 -726 -407 -1222 -623 -1712
-867 -2130 -1059 -376 -173 -448 -203 -498 -206 -60 -5 -97 13 -97 45 0 8 26
40 57 70 68 66 153 109 768 383 896 399 1353 632 2260 1150 203 116 246 139
262 140 7 0 37 -12 68 -27z m17472 -223 c45 -11 284 -100 530 -199 1118 -448
1153 -464 1734 -768 224 -118 464 -234 689 -333 190 -83 352 -155 360 -159 12
-7 55 -149 47 -157 -1 -1 -24 -11 -52 -22 l-50 -19 -490 237 c-269 130 -609
297 -755 372 -276 142 -371 183 -780 338 -346 131 -529 213 -982 442 -303 153
-398 205 -398 219 0 10 -5 21 -10 24 -14 9 30 44 55 45 11 0 57 -9 102 -20z
m667 -1732 c12 -6 91 -59 176 -119 85 -59 331 -217 545 -351 215 -135 597
-375 850 -535 253 -159 578 -362 721 -451 432 -267 410 -251 439 -316 38 -84
38 -87 -25 -102 -114 -28 -64 -55 -1160 643 -867 553 -1648 1059 -1702 1105
-27 22 -89 87 -138 143 l-89 102 181 -54 c100 -30 191 -59 202 -65z m-16800
-112 c-15 -47 -54 -113 -86 -142 -18 -17 -211 -173 -428 -346 -217 -173 -454
-364 -526 -425 -229 -194 -787 -708 -1266 -1165 -157 -151 -224 -208 -241
-208 -13 0 -44 7 -69 16 -36 12 -47 21 -51 42 -11 59 3 90 74 156 67 64 561
497 839 736 80 69 179 157 220 196 97 92 477 427 745 657 169 145 357 299 613
500 7 6 36 18 64 27 50 16 54 16 85 -3 27 -15 32 -24 27 -41z m14811 -120 c39
-16 126 -89 266 -222 140 -132 238 -214 469 -395 370 -290 663 -511 837 -630
364 -249 457 -325 740 -599 196 -190 203 -202 162 -276 -23 -42 -25 -44 -71
-44 -26 0 -57 4 -70 9 -27 10 -170 134 -353 305 -71 67 -166 153 -210 192 -95
84 -613 490 -1180 924 -518 396 -751 590 -760 630 -8 36 1 66 29 102 19 25 25
27 66 22 25 -3 59 -12 75 -18z m-13170 -1553 c3 -10 9 -45 12 -78 l5 -60 -75
-118 c-42 -64 -91 -136 -110 -160 -19 -23 -187 -253 -372 -512 -715 -994
-1140 -1561 -1221 -1631 -107 -91 -198 -159 -192 -144 3 8 28 85 57 170 l51
155 166 215 c91 118 474 646 851 1173 691 965 699 975 773 998 39 12 47 10 55
-8z m11337 6 c29 -6 61 -17 72 -24 32 -23 115 -127 199 -250 45 -66 176 -248
292 -405 537 -725 1403 -1927 1435 -1990 9 -19 27 -72 39 -118 12 -46 29 -101
37 -124 l14 -40 -43 34 c-23 18 -79 60 -124 92 -92 66 -105 81 -228 261 -49
72 -146 207 -215 300 -70 94 -252 341 -405 550 -153 209 -467 635 -699 948
-231 312 -427 584 -434 604 -6 20 -15 67 -19 105 -7 77 -9 76 79 57z m-13115
-121 l31 -33 -50 -92 c-48 -86 -140 -188 -1491 -1655 -792 -859 -1647 -1790
-1899 -2068 -253 -278 -485 -528 -515 -557 -43 -41 -73 -58 -140 -83 -47 -17
-87 -29 -89 -27 -7 6 66 189 88 220 12 18 130 149 263 292 132 143 398 431
590 640 508 551 1898 2052 2491 2690 477 513 662 705 682 705 4 0 22 -15 39
-32z m14963 -153 c93 -62 161 -130 1227 -1238 620 -644 1310 -1359 1533 -1587
436 -447 1142 -1177 1232 -1275 30 -33 64 -78 75 -100 22 -42 67 -184 61 -190
-2 -2 -48 18 -104 45 l-100 48 -445 459 c-439 452 -686 710 -949 993 -74 79
-513 540 -975 1025 -462 484 -1006 1055 -1209 1268 -352 369 -475 511 -476
549 0 18 20 68 27 68 3 0 49 -29 103 -65z m-17953 -576 c37 -10 48 -18 59 -45
30 -72 10 -114 -86 -187 -30 -22 -161 -129 -290 -237 -425 -354 -757 -615
-815 -640 -22 -10 -68 -21 -102 -24 l-62 -7 19 57 c36 104 58 137 132 194 72
56 972 806 1041 867 42 37 41 37 104 22z m14020 -394 c131 -156 227 -343 394
-765 192 -487 956 -2402 983 -2465 15 -36 26 -79 26 -107 0 -55 -20 -138 -33
-138 -5 0 -41 17 -79 37 -86 45 -68 11 -309 603 -529 1305 -1003 2511 -1024
2605 -16 73 -30 314 -18 300 5 -5 32 -37 60 -70z m-7183 25 c18 0 19 -6 12
-94 -6 -93 -10 -105 -192 -573 -212 -546 -469 -1219 -684 -1793 -290 -772
-398 -1043 -427 -1071 -27 -25 -111 -64 -120 -55 -10 9 -33 114 -33 149 0 39
143 419 730 1937 161 415 348 901 417 1080 137 356 142 368 185 422 l29 37 32
-19 c18 -11 41 -20 51 -20z m-1585 -492 c44 -16 47 -20 55 -76 5 -41 2 -52
-41 -126 -25 -45 -105 -173 -177 -286 -159 -250 -369 -633 -738 -1345 -385
-742 -465 -895 -612 -1161 -109 -200 -131 -234 -159 -245 -38 -16 -151 -19
-167 -3 -7 7 -7 38 -1 96 9 97 4 87 189 378 163 256 205 327 350 590 213 389
420 791 570 1110 179 379 188 397 295 575 139 233 303 463 346 485 43 23 45
23 90 8z m13503 -1850 c366 -471 880 -1167 905 -1225 13 -31 12 -33 -9 -33
-12 0 -30 -8 -40 -17 -17 -15 -23 -16 -58 -3 -44 17 -76 57 -400 485 -217 287
-410 533 -572 728 -54 65 -98 128 -98 138 0 11 9 38 20 59 20 38 22 40 69 40
l49 0 134 -172z"/>
</g>
</svg>
